<svg height="480pt" viewBox="0 0 480 480.00099" width="480pt" xmlns="http://www.w3.org/2000/svg"><path d="m144 200h40v96c0 8.835938-7.164062 16-16 16h-8c-8.835938 0-16-7.164062-16-16zm0 0" fill="#faa108"/><path d="m296 200h40v96c0 8.835938-7.164062 16-16 16h-8c-8.835938 0-16-7.164062-16-16zm0 0" fill="#faa108"/><path d="m288 96c0 26.511719-21.488281 48-48 48-26.507812 0-48-21.488281-48-48 0-26.507812 21.492188-48 48-48 26.511719 0 48 21.492188 48 48zm0 0" fill="#faa108"/><path d="m184 288h112v144h-112zm0 0" fill="#faeed8"/><path d="m184 432h56v24c0 8.835938-7.164062 16-16 16h-24c-8.835938 0-16-7.164062-16-16zm0 0" fill="#fd412d"/><path d="m240 432h56v24c0 8.835938-7.164062 16-16 16h-24c-8.835938 0-16-7.164062-16-16zm0 0" fill="#fd412d"/><path d="m312 144h-144c-5.921875.015625-11.625 2.238281-16 6.234375v26.214844h-8v23.550781h40v88h112v-88h40v-32c0-13.253906-10.746094-24-24-24zm0 0" fill="#70dda8"/><path d="m264 168-24 24-24-24v-24h48zm0 0" fill="#70dda8"/><path d="m472 80c0 39.765625-32.234375 72-72 72s-72-32.234375-72-72c0-39.761719 32.234375-72 72-72s72 32.238281 72 72zm0 0" fill="#faa108"/><path d="m8 48.449219h144v128h-144zm0 0" fill="#fd412d"/><path d="m64 48.449219h32v128h-32zm0 0" fill="#faa108"/><path d="m456 344h-40l-48-48v48h-8c-8.835938 0-16 7.164062-16 16v72c0 8.835938 7.164062 16 16 16h96c8.835938 0 16-7.164062 16-16v-72c0-8.835938-7.164062-16-16-16zm0 0" fill="#70dda8"/><path d="m72 336 20.410156 14.730469 24.847656 4.015625 4.015626 24.847656 14.726562 20.40625-14.726562 20.410156-4.015626 24.847656-24.847656 4.015626-20.410156 14.726562-20.40625-14.726562-24.847656-4.015626-4.019532-24.847656-14.726562-20.410156 14.726562-20.40625 4.019532-24.847656 24.847656-4.015625zm0 0" fill="#fd412d"/><g fill="#301993"><path d="m344 296v-32c0-4.417969-3.582031-8-8-8s-8 3.582031-8 8v32c0 4.417969-3.582031 8-8 8h-8c-4.417969 0-8-3.582031-8-8v-88h32c4.417969 0 8-3.582031 8-8s-3.582031-8-8-8h-40c-4.417969 0-8 3.582031-8 8v96c0 13.253906 10.746094 24 24 24h8c13.253906 0 24-10.746094 24-24zm0 0"/><path d="m296 352c-4.417969 0-8 3.582031-8 8v64h-40v-96c0-4.417969-3.582031-8-8-8s-8 3.582031-8 8v96h-40v-224c0-4.417969-3.582031-8-8-8s-8 3.582031-8 8v96c0 4.417969-3.582031 8-8 8h-8c-4.417969 0-8-3.582031-8-8v-80c0-4.417969-3.582031-8-8-8s-8 3.582031-8 8v64h-32c-22.078125.027344-39.972656 17.921875-40 40v11.914062l-15.550781 11.199219-22.976563 3.703125c-3.410156.546875-6.085937 3.222656-6.632812 6.632813l-3.703125 22.976562-13.601563 18.871094c-2.015625 2.792969-2.015625 6.566406 0 9.359375l13.601563 18.871094 3.703125 22.976562c.546875 3.410156 3.222656 6.085938 6.632812 6.632813l22.976563 3.703125 18.871093 13.601562c2.792969 2.015625 6.566407 2.015625 9.359376 0l18.871093-13.601562 22.976563-3.703125c3.410156-.546875 6.085937-3.222657 6.632812-6.632813l3.703125-22.976562 13.601563-18.871094c2.015625-2.792969 2.015625-6.566406 0-9.359375l-13.601563-18.871094-3.703125-22.976562c-.546875-3.410157-3.222656-6.085938-6.632812-6.632813l-22.976563-3.703125-15.550781-11.199219v-11.914062c0-13.253906 10.746094-24 24-24h32c0 13.253906 10.746094 24 24 24h8c2.730469-.027344 5.4375-.523438 8-1.472656v137.472656c0 13.253906 10.746094 24 24 24h24c5.921875-.019531 11.628906-2.246094 16-6.238281 4.375 3.992187 10.078125 6.21875 16 6.238281h24c13.253906 0 24-10.746094 24-24v-96c0-4.417969-3.582031-8-8-8zm-204.863281 6.625 19.144531 3.097656 3.09375 19.140625c.195312 1.234375.683594 2.402344 1.417969 3.410157l11.34375 15.726562-11.34375 15.730469c-.734375 1.007812-1.222657 2.175781-1.417969 3.40625l-3.09375 19.144531-19.144531 3.097656c-1.230469.195313-2.398438.679688-3.410157 1.414063l-15.726562 11.34375-15.726562-11.34375c-1.007813-.734375-2.175782-1.21875-3.410157-1.414063l-19.144531-3.097656-3.09375-19.144531c-.195312-1.230469-.679688-2.398438-1.417969-3.40625l-11.34375-15.730469 11.34375-15.726562c.738281-1.007813 1.222657-2.175782 1.417969-3.410157l3.09375-19.140625 19.144531-3.097656c1.234375-.195312 2.402344-.679688 3.410157-1.414062l15.726562-11.347657 15.726562 11.347657c1.011719.734374 2.179688 1.21875 3.410157 1.414062zm132.863281 105.375h-24c-4.417969 0-8-3.582031-8-8v-16h40v16c0 4.417969-3.582031 8-8 8zm64-8c0 4.417969-3.582031 8-8 8h-24c-4.417969 0-8-3.582031-8-8v-16h40zm0 0"/><path d="m184 152h24v16c0 2.121094.84375 4.15625 2.34375 5.65625l21.65625 21.65625v28.6875c0 4.417969 3.582031 8 8 8s8-3.582031 8-8v-28.6875l21.65625-21.65625c1.5-1.5 2.34375-3.535156 2.34375-5.65625v-16h40c8.835938 0 16 7.164062 16 16 0 4.417969 3.582031 8 8 8s8-3.582031 8-8c0-17.671875-14.328125-32-32-32h-72c-22.089844 0-40-17.90625-40-40 0-22.089844 17.910156-40 40-40 22.09375 0 40 17.910156 40 40 0 4.417969 3.582031 8 8 8s8-3.582031 8-8c.035156-25.4375-17.082031-47.707031-41.675781-54.214844-24.59375-6.507812-50.484375 4.382813-63.035157 26.511719-12.550781 22.128906-8.609374 49.9375 9.597657 67.703125h-16.886719c-4.417969 0-8 3.582031-8 8s3.582031 8 8 8zm72 12.6875-16 16-16-16v-12.6875h32zm0 0"/><path d="m400 104c-4.417969 0-8-3.582031-8-8s-3.582031-8-8-8-8 3.582031-8 8c.042969 10.136719 6.445312 19.152344 16 22.527344v9.472656c0 4.417969 3.582031 8 8 8s8-3.582031 8-8v-9.472656c11.011719-3.878906 17.621094-15.132813 15.644531-26.640625-1.980469-11.503907-11.96875-19.90625-23.644531-19.886719-4.417969 0-8-3.582031-8-8s3.582031-8 8-8 8 3.582031 8 8 3.582031 8 8 8 8-3.582031 8-8c-.042969-10.132812-6.445312-19.148438-16-22.527344v-9.472656c0-4.417969-3.582031-8-8-8s-8 3.582031-8 8v9.472656c-11.011719 3.878906-17.621094 15.136719-15.644531 26.640625 1.980469 11.507813 11.96875 19.910157 23.644531 19.886719 4.417969 0 8 3.582031 8 8s-3.582031 8-8 8zm0 0"/><path d="m400 144c-4.417969 0-8 3.582031-8 8v48c0 13.253906-10.746094 24-24 24h-32c-4.417969 0-8 3.582031-8 8s3.582031 8 8 8h32c22.082031-.027344 39.972656-17.917969 40-40v-40.40625c40.851562-4.15625 71.949219-38.527344 72-79.59375 0-4.417969-3.582031-8-8-8s-8 3.582031-8 8c-.039062 35.332031-28.667969 63.960938-64 64zm0 0"/><path d="m328 88c4.417969 0 8-3.582031 8-8-.035156-26.527344 16.320312-50.320312 41.097656-59.789062 24.78125-9.472657 52.835938-2.652344 70.503906 17.132812 1.894532 2.179688 4.816407 3.167969 7.644532 2.585938 2.828125-.582032 5.125-2.644532 6.007812-5.394532.882813-2.746094.210938-5.757812-1.75-7.878906-22.097656-24.71875-57.160156-33.226562-88.128906-21.386719-30.96875 11.84375-51.40625 41.578125-51.375 74.730469 0 4.417969 3.582031 8 8 8zm0 0"/><path d="m8 112c4.417969 0 8-3.582031 8-8v-47.542969h31.351562l-21.597656 27c-2.761718 3.449219-2.203125 8.488281 1.246094 11.246094 3.449219 2.761719 8.488281 2.203125 11.25-1.246094l17.75-22.191406v64.734375c0 4.417969 3.582031 8 8 8s8-3.582031 8-8v-79.542969h16v79.542969c0 4.417969 3.582031 8 8 8s8-3.582031 8-8v-64.734375l17.753906 22.191406c2.761719 3.449219 7.796875 4.007813 11.246094 1.246094 3.449219-2.757813 4.011719-7.796875 1.25-11.246094l-21.601562-27h39.351562c4.417969 0 8-3.582031 8-8s-3.582031-8-8-8h-30.160156c8.917968-9.421875 8.734375-24.226562-.414063-33.425781-9.496093-9.0625-24.441406-9.0625-33.9375 0-2.882812 3.160156-5.398437 6.636719-7.488281 10.371094-2.082031-3.746094-4.59375-7.234375-7.480469-10.402344-9.5-9.0625-24.445312-9.0625-33.941406 0-9.171875 9.203125-9.355469 24.03125-.417969 33.457031h-30.160156c-4.417969 0-8 3.582031-8 8v55.542969c0 4.417969 3.582031 8 8 8zm96.457031-96c3.234375 0 6.152344 1.949219 7.390625 4.941406 1.234375 2.988282.550782 6.425782-1.734375 8.714844-6.300781 5.351562-13.824219 9.0625-21.90625 10.800781h-.207031c1.699219-8.164062 5.425781-15.769531 10.839844-22.113281 1.484375-1.5 3.507812-2.34375 5.617187-2.34375zm-54.570312 2.34375c3.125-3.121094 8.191406-3.121094 11.3125 0 5.398437 6.347656 9.113281 13.953125 10.800781 22.113281h-.238281c-8.082031-1.738281-15.605469-5.449219-21.90625-10.800781-3.113281-3.132812-3.097657-8.195312.03125-11.3125zm0 0"/><path d="m8 184.457031c4.417969 0 8-3.582031 8-8v-24.457031c0-4.417969-3.582031-8-8-8s-8 3.582031-8 8v24.457031c0 4.417969 3.582031 8 8 8zm0 0"/><path d="m456 336c-4.417969 0-8 3.582031-8 8s3.582031 8 8 8 8 3.582031 8 8v72c0 4.417969-3.582031 8-8 8s-8 3.582031-8 8 3.582031 8 8 8c13.253906 0 24-10.746094 24-24v-72c0-13.253906-10.746094-24-24-24zm0 0"/><path d="m360 440c-4.417969 0-8-3.582031-8-8v-72c0-4.417969 3.582031-8 8-8h8c4.417969 0 8-3.582031 8-8v-28.6875l34.34375 34.34375c3.140625 3.03125 8.128906 2.988281 11.214844-.097656 3.085937-3.085938 3.128906-8.074219.097656-11.214844l-48-48c-2.289062-2.285156-5.726562-2.96875-8.71875-1.730469-2.988281 1.234375-4.9375 4.152344-4.9375 7.386719v40c-13.253906 0-24 10.746094-24 24v72c0 13.253906 10.746094 24 24 24 4.417969 0 8-3.582031 8-8s-3.582031-8-8-8zm0 0"/><path d="m376 376c-4.417969 0-8 3.582031-8 8s3.582031 8 8 8h16c4.417969 0 8-3.582031 8-8s-3.582031-8-8-8zm0 0"/><path d="m440 376h-16c-4.417969 0-8 3.582031-8 8s3.582031 8 8 8h16c4.417969 0 8-3.582031 8-8s-3.582031-8-8-8zm0 0"/><path d="m424 408h-48c-4.417969 0-8 3.582031-8 8s3.582031 8 8 8h48c4.417969 0 8-3.582031 8-8s-3.582031-8-8-8zm0 0"/><path d="m50.34375 421.65625c3.125 3.125 8.1875 3.125 11.3125 0l32-32c3.03125-3.136719 2.988281-8.128906-.097656-11.214844-3.085938-3.085937-8.074219-3.128906-11.214844-.097656l-32 32c-3.121094 3.125-3.121094 8.1875 0 11.3125zm0 0"/><path d="m64 384c0 4.417969-3.582031 8-8 8s-8-3.582031-8-8 3.582031-8 8-8 8 3.582031 8 8zm0 0"/><path d="m96 416c0 4.417969-3.582031 8-8 8s-8-3.582031-8-8 3.582031-8 8-8 8 3.582031 8 8zm0 0"/><path d="m152 184.457031c4.417969 0 8-3.582031 8-8s-3.582031-8-8-8h-109.335938c-2.449218-.863281-5.164062-.488281-7.285156 1.011719-2.117187 1.5-3.378906 3.9375-3.378906 6.53125v40c.027344 22.082031 17.921875 39.972656 40 40h32c4.417969 0 8-3.582031 8-8s-3.582031-8-8-8h-32c-13.253906 0-24-10.746094-24-24v-31.542969zm0 0"/></g></svg>