<?xml version="1.0" encoding="utf-8"?>
<!-- Generator: Adobe Illustrator 22.0.1, SVG Export Plug-In . SVG Version: 6.00 Build 0)  -->
<svg xmlns="http://www.w3.org/2000/svg" xmlns:xlink="http://www.w3.org/1999/xlink" version="1.1" x="0px" y="0px" viewBox="0 0 256 256" style="enable-background:new 0 0 256 256;" xml:space="preserve" width="512" height="512">
<style type="text/css">
	.st0{display:none;}
	.st1{display:inline;}
	.st2{fill:none;stroke:#6B1D1D;stroke-width:0.5;stroke-miterlimit:10;}
	.st3{fill:#3A312A;}
	.st4{fill:#F16C7A;}
	.st5{fill:#D7E057;}
	.st6{fill:#87796F;}
	.st7{fill:#CE4E61;}
	.st8{fill-rule:evenodd;clip-rule:evenodd;fill:#D7E057;}
	.st9{fill-rule:evenodd;clip-rule:evenodd;fill:#FCE8CB;}
	.st10{fill:#B9BC39;}
	.st11{fill:#8AC6DD;}
	.st12{fill:#FCE8CB;}
	.st13{fill:#CCAE8B;}
	.st14{fill:#6B5B51;}
	.st15{fill:#68A8BC;}
	.st16{fill:#F5978A;}
	.st17{fill-rule:evenodd;clip-rule:evenodd;fill:#F16C7A;}
	.st18{fill-rule:evenodd;clip-rule:evenodd;fill:#8AC6DD;}
</style>
<g id="Layer_1" class="st0">
	<g class="st1">
		<g>
			<line class="st2" x1="0" y1="4.829" x2="256" y2="4.829"/>
			<line class="st2" x1="0" y1="16.56" x2="256" y2="16.56"/>
			<line class="st2" x1="0" y1="28.29" x2="256" y2="28.29"/>
			<line class="st2" x1="0" y1="40.021" x2="256" y2="40.021"/>
			<line class="st2" x1="0" y1="51.751" x2="256" y2="51.751"/>
			<line class="st2" x1="0" y1="63.482" x2="256" y2="63.482"/>
			<line class="st2" x1="0" y1="75.213" x2="256" y2="75.213"/>
			<line class="st2" x1="0" y1="86.943" x2="256" y2="86.943"/>
			<line class="st2" x1="0" y1="98.674" x2="256" y2="98.674"/>
			<line class="st2" x1="0" y1="110.404" x2="256" y2="110.404"/>
			<line class="st2" x1="0" y1="122.135" x2="256" y2="122.135"/>
			<line class="st2" x1="0" y1="133.865" x2="256" y2="133.865"/>
			<line class="st2" x1="0" y1="145.596" x2="256" y2="145.596"/>
			<line class="st2" x1="0" y1="157.326" x2="256" y2="157.326"/>
			<line class="st2" x1="0" y1="169.057" x2="256" y2="169.057"/>
			<line class="st2" x1="0" y1="180.788" x2="256" y2="180.788"/>
			<line class="st2" x1="0" y1="192.518" x2="256" y2="192.518"/>
			<line class="st2" x1="0" y1="204.249" x2="256" y2="204.249"/>
			<line class="st2" x1="0" y1="215.979" x2="256" y2="215.979"/>
			<line class="st2" x1="0" y1="227.71" x2="256" y2="227.71"/>
			<line class="st2" x1="0" y1="239.44" x2="256" y2="239.44"/>
			<line class="st2" x1="0" y1="251.171" x2="256" y2="251.171"/>
		</g>
		<g>
			<line class="st2" x1="251.171" y1="0" x2="251.171" y2="256"/>
			<line class="st2" x1="239.44" y1="0" x2="239.44" y2="256"/>
			<line class="st2" x1="227.71" y1="0" x2="227.71" y2="256"/>
			<line class="st2" x1="215.979" y1="0" x2="215.979" y2="256"/>
			<line class="st2" x1="204.249" y1="0" x2="204.249" y2="256"/>
			<line class="st2" x1="192.518" y1="0" x2="192.518" y2="256"/>
			<line class="st2" x1="180.787" y1="0" x2="180.787" y2="256"/>
			<line class="st2" x1="169.057" y1="0" x2="169.057" y2="256"/>
			<line class="st2" x1="157.326" y1="0" x2="157.326" y2="256"/>
			<line class="st2" x1="145.596" y1="0" x2="145.596" y2="256"/>
			<line class="st2" x1="133.865" y1="0" x2="133.865" y2="256"/>
			<line class="st2" x1="122.135" y1="0" x2="122.135" y2="256"/>
			<line class="st2" x1="110.404" y1="0" x2="110.404" y2="256"/>
			<line class="st2" x1="98.674" y1="0" x2="98.674" y2="256"/>
			<line class="st2" x1="86.943" y1="0" x2="86.943" y2="256"/>
			<line class="st2" x1="75.212" y1="0" x2="75.212" y2="256"/>
			<line class="st2" x1="63.482" y1="0" x2="63.482" y2="256"/>
			<line class="st2" x1="51.751" y1="0" x2="51.751" y2="256"/>
			<line class="st2" x1="40.021" y1="0" x2="40.021" y2="256"/>
			<line class="st2" x1="28.29" y1="0" x2="28.29" y2="256"/>
			<line class="st2" x1="16.56" y1="0" x2="16.56" y2="256"/>
			<line class="st2" x1="4.829" y1="0" x2="4.829" y2="256"/>
		</g>
	</g>
</g>
<g id="Layer_2">
	<g>
		<g>
			<g>
				<path class="st3" d="M201.557,55.944c-0.586-0.586-1.535-0.586-2.121,0L56.637,198.743c-0.586,0.586-0.586,1.535,0,2.121      c0.293,0.293,0.677,0.439,1.061,0.439c0.384,0,0.768-0.146,1.061-0.439L201.557,58.065      C202.143,57.479,202.143,56.53,201.557,55.944z"/>
			</g>
		</g>
		<g>
			<g>
				<path class="st3" d="M201.557,198.743L58.758,55.944c-0.586-0.586-1.535-0.586-2.121,0c-0.586,0.586-0.586,1.535,0,2.121      l142.799,142.799c0.293,0.293,0.677,0.439,1.061,0.439s0.768-0.146,1.06-0.439C202.143,200.278,202.143,199.329,201.557,198.743      z"/>
			</g>
		</g>
		<g>
			<g>
				<path class="st11" d="M128.824,66.073c-0.475-0.402-1.173-0.402-1.649,0l-47.908,40.635v64.758h97.465v-64.758L128.824,66.073z"/>
			</g>
		</g>
		<g>
			<g>
				<path class="st3" d="M177.703,105.564l-47.909-40.636c-1.039-0.88-2.548-0.879-3.588,0.001l-47.908,40.635      c-0.336,0.284-0.53,0.703-0.53,1.144v24.087c0,0.828,0.671,1.5,1.5,1.5c0.829,0,1.5-0.672,1.5-1.5v-23.393L128,67.341      l47.232,40.062v62.563H80.768v-23.952c0-0.828-0.671-1.5-1.5-1.5c-0.829,0-1.5,0.672-1.5,1.5v25.452c0,0.828,0.671,1.5,1.5,1.5      h97.465c0.829,0,1.5-0.672,1.5-1.5v-64.758C178.232,106.268,178.039,105.849,177.703,105.564z"/>
			</g>
		</g>
		<g>
			<g>
				<path class="st6" d="M183.792,109.216l-52.773-44.763c-1.749-1.481-4.287-1.482-6.038,0.002l-52.772,44.761      c-1.429,1.213-1.605,3.355-0.392,4.784c1.213,1.43,3.355,1.605,4.784,0.392L128,70.794l51.4,43.598      c0.638,0.541,1.418,0.806,2.194,0.806c0.962,0,1.919-0.407,2.59-1.198C185.397,112.571,185.221,110.428,183.792,109.216z"/>
			</g>
		</g>
		<g>
			<g>
				<path class="st3" d="M184.762,108.072l-52.775-44.764c-2.312-1.958-5.666-1.958-7.978,0.003l-52.772,44.761      c-2.057,1.746-2.311,4.841-0.565,6.898c1.747,2.057,4.84,2.312,6.898,0.565L128,72.762l50.43,42.775      c0.884,0.749,2.007,1.161,3.164,1.161c1.441,0,2.802-0.63,3.734-1.728C187.074,112.913,186.82,109.818,184.762,108.072z       M183.04,113.029c-0.361,0.425-0.888,0.669-1.446,0.669c-0.316,0-0.786-0.078-1.224-0.449l-51.4-43.598      c-0.28-0.237-0.625-0.356-0.97-0.356c-0.345,0-0.69,0.119-0.97,0.356l-51.4,43.597c-0.797,0.677-1.995,0.578-2.67-0.219      c-0.676-0.796-0.578-1.994,0.218-2.67L125.95,65.6c1.188-1.007,2.912-1.006,4.098-0.003l52.773,44.763      C183.618,111.035,183.716,112.233,183.04,113.029z"/>
			</g>
		</g>
		<g>
			<g>
				<path class="st6" d="M162.272,112.602H93.728c-3.156,0-5.715,2.559-5.715,5.715v53.149h79.974v-53.149      C167.987,115.16,165.428,112.602,162.272,112.602z"/>
			</g>
		</g>
		<g>
			<g>
				<path class="st3" d="M162.271,111.102h-11.682c-0.829,0-1.5,0.672-1.5,1.5s0.671,1.5,1.5,1.5h11.682      c2.324,0,4.215,1.892,4.215,4.216v51.648H89.513v-51.648c0-2.324,1.891-4.216,4.215-4.216h42.183c0.829,0,1.5-0.672,1.5-1.5      s-0.671-1.5-1.5-1.5H93.728c-3.978,0-7.215,3.237-7.215,7.216v53.148c0,0.828,0.671,1.5,1.5,1.5h79.974      c0.829,0,1.5-0.672,1.5-1.5v-53.148C169.487,114.339,166.25,111.102,162.271,111.102z"/>
			</g>
		</g>
		<g>
			<g>
				<circle class="st12" cx="128" cy="92.989" r="8.728"/>
			</g>
		</g>
		<g>
			<g>
				<path class="st3" d="M128,82.761c-5.64,0-10.228,4.588-10.228,10.228s4.588,10.229,10.228,10.229s10.228-4.589,10.228-10.229      S133.64,82.761,128,82.761z M128,100.217c-3.985,0-7.228-3.243-7.228-7.229s3.243-7.228,7.228-7.228s7.228,3.242,7.228,7.228      S131.985,100.217,128,100.217z"/>
			</g>
		</g>
		<g>
			<g>
				<rect x="19.972" y="36.677" class="st6" width="40.325" height="46.156"/>
			</g>
		</g>
		<g>
			<g>
				<path class="st3" d="M60.298,35.177H19.972c-0.829,0-1.5,0.672-1.5,1.5v46.155c0,0.828,0.671,1.5,1.5,1.5h40.326      c0.829,0,1.5-0.672,1.5-1.5V36.677C61.798,35.849,61.126,35.177,60.298,35.177z M58.798,81.332H21.472V38.177h37.326V81.332z"/>
			</g>
		</g>
		<g>
			<g>
				<path class="st12" d="M53.5,73.755h-7.117V69.13c-1.968,1.365-4.005,2.17-5.982,2.17c-1.896,0-3.896-0.813-5.857-2.194h-0.121      v4.649h-7.121c-5.949,0-10.771,4.822-10.771,10.771v9.761h47.739v-9.761C64.271,78.577,59.449,73.755,53.5,73.755z"/>
			</g>
		</g>
		<g>
			<g>
				<path class="st3" d="M53.5,72.255h-5.617V69.13c0-0.559-0.31-1.07-0.804-1.329c-0.495-0.259-1.093-0.223-1.551,0.097      c-1.82,1.263-3.545,1.902-5.126,1.902c-1.483,0-3.209-0.664-4.993-1.921c-0.253-0.178-0.555-0.273-0.864-0.273h-0.121      c-0.829,0-1.5,0.672-1.5,1.5v3.149h-5.621c-6.766,0-12.271,5.505-12.271,12.271v9.762c0,0.828,0.671,1.5,1.5,1.5h47.739      c0.829,0,1.5-0.672,1.5-1.5v-9.762C65.771,77.76,60.267,72.255,53.5,72.255z M62.771,92.788H18.033v-8.262      c0-5.112,4.159-9.271,9.271-9.271h7.121c0.829,0,1.5-0.672,1.5-1.5v-2.083c3.092,1.507,5.929,1.472,8.958,0.059v2.024      c0,0.828,0.671,1.5,1.5,1.5H53.5c5.112,0,9.271,4.159,9.271,9.271V92.788z"/>
			</g>
		</g>
		<g>
			<g>
				<path class="st4" d="M53.5,73.752h-1.703l0.044,0.032l-7.402,9.817l-3.82-2.878l-3.82,2.878l-7.402-9.817l0.044-0.032h-2.137      c-5.949,0-10.771,4.822-10.771,10.771v9.765h47.739v-9.765C64.272,78.574,59.449,73.752,53.5,73.752z"/>
			</g>
		</g>
		<g>
			<g>
				<path class="st3" d="M53.5,72.252h-1.703c-0.581,0-1.084,0.347-1.329,0.861l-6.324,8.388l-2.622-1.976      c-0.535-0.402-1.27-0.402-1.806,0l-2.622,1.976l-6.258-8.3c-0.225-0.569-0.777-0.949-1.396-0.949h-2.137      c-6.767,0-12.271,5.505-12.271,12.271v9.766c0,0.828,0.671,1.5,1.5,1.5h47.739c0.829,0,1.5-0.672,1.5-1.5v-9.766      C65.771,77.757,60.267,72.252,53.5,72.252z M62.771,92.789H18.033v-8.266c0-5.112,4.159-9.271,9.271-9.271h1.321l6.977,9.253      c0.499,0.66,1.438,0.791,2.1,0.295l2.917-2.198l2.917,2.198c0.662,0.496,1.602,0.365,2.101-0.295l6.977-9.253H53.5      c5.112,0,9.271,4.159,9.271,9.271V92.789z"/>
			</g>
		</g>
		<g>
			<g>
				<path class="st9" d="M21.906,42.815c-2.341,0-4.238,1.898-4.238,4.239c0,2.341,1.898,4.238,4.238,4.238      c2.341,0,4.238-1.898,4.238-4.238C26.144,44.713,24.247,42.815,21.906,42.815z"/>
			</g>
		</g>
		<g>
			<g>
				<path class="st3" d="M21.906,41.315c-3.164,0-5.738,2.574-5.738,5.738s2.574,5.738,5.738,5.738c3.164,0,5.738-2.574,5.738-5.738      S25.07,41.315,21.906,41.315z M21.906,49.792c-1.51,0-2.738-1.229-2.738-2.738s1.228-2.738,2.738-2.738      c1.51,0,2.738,1.229,2.738,2.738S23.416,49.792,21.906,49.792z"/>
			</g>
		</g>
		<g>
			<g>
				<path class="st9" d="M58.899,42.815c-2.341,0-4.238,1.898-4.238,4.239c0,2.341,1.898,4.238,4.238,4.238      c2.341,0,4.238-1.898,4.238-4.238C63.138,44.713,61.24,42.815,58.899,42.815z"/>
			</g>
		</g>
		<g>
			<g>
				<path class="st3" d="M58.899,41.315c-3.164,0-5.738,2.574-5.738,5.738s2.574,5.738,5.738,5.738c3.164,0,5.738-2.574,5.738-5.738      S62.063,41.315,58.899,41.315z M58.899,49.792c-1.51,0-2.738-1.229-2.738-2.738s1.229-2.738,2.738-2.738      c1.51,0,2.738,1.229,2.738,2.738S60.409,49.792,58.899,49.792z"/>
			</g>
		</g>
		<g>
			<g>
				<path class="st12" d="M40.403,26.207c-10.377,0-18.789,8.412-18.789,18.789c0,10.377,10.394,26.304,18.789,26.304      c8.795,0,18.789-15.928,18.789-26.304C59.191,34.619,50.779,26.207,40.403,26.207z"/>
			</g>
		</g>
		<g>
			<g>
				<path class="st3" d="M40.403,24.707c-11.188,0-20.289,9.102-20.289,20.289c0,10.979,10.882,27.805,20.289,27.805      c9.602,0,20.289-16.573,20.289-27.805C60.691,33.809,51.59,24.707,40.403,24.707z M40.403,69.801      c-7.109,0-17.289-14.604-17.289-24.805c0-9.533,7.756-17.289,17.289-17.289c9.533,0,17.289,7.756,17.289,17.289      C57.691,54.565,48.251,69.801,40.403,69.801z"/>
			</g>
		</g>
		<g>
			<g>
				<path class="st3" d="M33.769,42.95c-1.013,0-1.834,0.821-1.834,1.834c0,1.013,0.821,1.834,1.834,1.834      c1.013,0,1.834-0.821,1.834-1.834C35.603,43.771,34.782,42.95,33.769,42.95z"/>
			</g>
		</g>
		<g>
			<g>
				<path class="st3" d="M47.036,42.95c-1.013,0-1.834,0.821-1.834,1.834c0,1.013,0.821,1.834,1.834,1.834s1.834-0.821,1.834-1.834      C48.87,43.771,48.049,42.95,47.036,42.95z"/>
			</g>
		</g>
		<g>
			<g>
				<ellipse class="st16" cx="30.104" cy="50.236" rx="3.159" ry="2.362"/>
			</g>
		</g>
		<g>
			<g>
				<path class="st16" d="M50.701,47.875c-1.745,0-3.159,1.057-3.159,2.362s1.414,2.362,3.159,2.362      c1.745,0,3.159-1.057,3.159-2.362S52.446,47.875,50.701,47.875z"/>
			</g>
		</g>
		<g>
			<g>
				
					<rect x="32.616" y="71.099" transform="matrix(0.7986 -0.6019 0.6019 0.7986 -39.4395 36.6333)" class="st6" width="4.803" height="12.295"/>
			</g>
		</g>
		<g>
			<g>
				<path class="st3" d="M41.833,79.809l-7.4-9.819c-0.239-0.318-0.595-0.527-0.989-0.583c-0.392-0.056-0.793,0.048-1.111,0.287      l-3.835,2.891c-0.662,0.499-0.794,1.439-0.295,2.101l7.4,9.819c0.294,0.392,0.744,0.598,1.199,0.598      c0.314,0,0.631-0.099,0.902-0.302l3.836-2.891c0.317-0.239,0.527-0.596,0.583-0.989C42.176,80.525,42.073,80.126,41.833,79.809z       M37.095,81.501L31.5,74.077l1.44-1.085l5.595,7.424L37.095,81.501z"/>
			</g>
		</g>
		<g>
			<g>
				
					<rect x="40.074" y="74.845" transform="matrix(0.6019 -0.7986 0.7986 0.6019 -43.2865 67.6671)" class="st6" width="12.295" height="4.803"/>
			</g>
		</g>
		<g>
			<g>
				<path class="st3" d="M53.325,73.573c-0.055-0.394-0.265-0.75-0.583-0.989l-3.836-2.891c-0.661-0.497-1.602-0.366-2.1,0.296      l-7.4,9.819c-0.24,0.317-0.343,0.717-0.288,1.111c0.055,0.394,0.265,0.75,0.582,0.989l3.836,2.891      c0.27,0.203,0.587,0.302,0.902,0.302c0.455,0,0.904-0.206,1.199-0.598l7.4-9.819C53.277,74.367,53.38,73.968,53.325,73.573z       M44.144,81.501l-1.44-1.085l5.595-7.424l1.44,1.085L44.144,81.501z"/>
			</g>
		</g>
		<g>
			<g>
				<path class="st3" d="M25.475,85.073c-0.829,0-1.5,0.672-1.5,1.5v7.716c0,0.828,0.671,1.5,1.5,1.5c0.829,0,1.5-0.672,1.5-1.5      v-7.716C26.975,85.745,26.303,85.073,25.475,85.073z"/>
			</g>
		</g>
		<g>
			<g>
				<path class="st3" d="M55.764,85.073c-0.829,0-1.5,0.672-1.5,1.5v7.716c0,0.828,0.671,1.5,1.5,1.5c0.829,0,1.5-0.672,1.5-1.5      v-7.716C57.264,85.745,56.593,85.073,55.764,85.073z"/>
			</g>
		</g>
		<g>
			<g>
				<path class="st3" d="M46.12,55.601c-0.775-0.293-1.64,0.102-1.931,0.878c-0.34,0.908-1.629,2.258-3.787,2.258      c-1.872,0-3.055-0.732-3.837-2.376c-0.356-0.748-1.25-1.063-2-0.71c-0.747,0.356-1.065,1.251-0.709,1.999      c1.273,2.674,3.537,4.087,6.546,4.087c3.45,0,5.837-2.18,6.596-4.205C47.289,56.755,46.896,55.891,46.12,55.601z"/>
			</g>
		</g>
		<g>
			<g>
				<path class="st6" d="M55.862,23.234c-3.948-4.171-9.535-6.773-15.728-6.773c-2.316,0-4.546,0.364-6.636,1.041      c1.655,3.838,3.611,7.524,6.276,10.732c1.225,1.471,2.582,2.829,4.018,4.089c1.17,1.041,2.395,2.023,3.639,2.966      c4.241,3.22,8.819,6.068,13.631,8.388c0.473-1.776,0.724-3.643,0.724-5.568C61.786,32.347,59.536,27.112,55.862,23.234z"/>
			</g>
		</g>
		<g>
			<g>
				<path class="st3" d="M56.952,22.203c-4.42-4.67-10.393-7.241-16.818-7.241c-2.43,0-4.818,0.374-7.098,1.113      c-0.401,0.13-0.73,0.423-0.904,0.808c-0.174,0.385-0.178,0.825-0.011,1.213c2.001,4.643,4.067,8.168,6.5,11.098      c1.203,1.446,2.61,2.879,4.174,4.25c1.087,0.968,2.307,1.963,3.729,3.04c4.432,3.365,9.104,6.239,13.887,8.545      c0.206,0.099,0.429,0.148,0.651,0.148c0.213,0,0.427-0.046,0.626-0.137c0.406-0.187,0.708-0.545,0.823-0.977      c0.514-1.928,0.774-3.932,0.774-5.954C63.286,32.162,61.036,26.514,56.952,22.203z M60.006,41.475      c-4.008-2.062-7.926-4.539-11.669-7.381c-1.359-1.03-2.52-1.977-3.556-2.898c-1.454-1.275-2.751-2.595-3.854-3.919      c-1.967-2.368-3.687-5.191-5.351-8.796c1.483-0.345,3.01-0.519,4.557-0.519c5.592,0,10.791,2.238,14.64,6.305      c3.555,3.751,5.512,8.667,5.512,13.843C60.286,39.243,60.192,40.369,60.006,41.475z"/>
			</g>
		</g>
		<g>
			<g>
				<path class="st6" d="M40.134,16.462c-2.316,0-4.546,0.364-6.636,1.041C24.789,20.3,18.486,28.469,18.486,38.11      c0,2.038,0.282,4.01,0.81,5.881c8.541-3.134,16.886-6.898,24.496-11.667c4.292-2.688,8.346-5.693,12.07-9.089      C51.914,19.063,46.327,16.462,40.134,16.462z"/>
			</g>
		</g>
		<g>
			<g>
				<path class="st3" d="M56.952,22.203c-4.42-4.67-10.393-7.241-16.818-7.241c-2.43,0-4.818,0.374-7.095,1.112      c-9.602,3.084-16.053,11.939-16.053,22.035c0,2.137,0.292,4.252,0.866,6.288c0.113,0.402,0.389,0.739,0.761,0.929      c0.213,0.109,0.447,0.164,0.682,0.164c0.174,0,0.35-0.03,0.517-0.092c9.644-3.538,17.749-7.399,24.776-11.804      c4.529-2.837,8.662-5.95,12.284-9.252c0.298-0.271,0.474-0.65,0.489-1.053C57.376,22.887,57.229,22.496,56.952,22.203z       M42.996,31.053c-6.463,4.05-13.882,7.637-22.635,10.94c-0.249-1.272-0.375-2.573-0.375-3.884      c0-8.787,5.615-16.495,13.975-19.181c1.981-0.642,4.058-0.967,6.173-0.967c5.073,0,9.823,1.843,13.534,5.22      C50.469,25.973,46.886,28.615,42.996,31.053z"/>
			</g>
		</g>
		<g>
			<g>
				<rect x="195.168" y="36.677" class="st6" width="40.325" height="46.156"/>
			</g>
		</g>
		<g>
			<g>
				<path class="st3" d="M235.494,35.177h-40.325c-0.829,0-1.5,0.672-1.5,1.5v46.155c0,0.828,0.671,1.5,1.5,1.5h40.325      c0.829,0,1.5-0.672,1.5-1.5V36.677C236.994,35.849,236.322,35.177,235.494,35.177z M233.994,81.332h-37.325V38.177h37.325      V81.332z"/>
			</g>
		</g>
		<g>
			<g>
				<path class="st12" d="M228.696,73.755h-7.117V69.13c-1.968,1.365-4.005,2.17-5.982,2.17c-1.896,0-3.896-0.813-5.857-2.194      h-0.121v4.649H202.5c-5.949,0-10.771,4.822-10.771,10.771v9.761h47.739v-9.761C239.467,78.577,234.645,73.755,228.696,73.755z"/>
			</g>
		</g>
		<g>
			<g>
				<path class="st3" d="M228.696,72.255h-5.617V69.13c0-0.559-0.31-1.07-0.804-1.329c-0.495-0.259-1.092-0.223-1.551,0.097      c-1.82,1.263-3.545,1.902-5.126,1.902c-1.483,0-3.209-0.664-4.993-1.921c-0.253-0.178-0.555-0.273-0.864-0.273h-0.121      c-0.829,0-1.5,0.672-1.5,1.5v3.149H202.5c-6.767,0-12.272,5.505-12.272,12.271v9.762c0,0.828,0.671,1.5,1.5,1.5h47.739      c0.829,0,1.5-0.672,1.5-1.5v-9.762C240.967,77.76,235.462,72.255,228.696,72.255z M237.967,92.788h-44.739v-8.262      c0-5.112,4.159-9.271,9.272-9.271h7.121c0.829,0,1.5-0.672,1.5-1.5v-2.083c3.092,1.507,5.929,1.472,8.958,0.059v2.024      c0,0.828,0.671,1.5,1.5,1.5h7.117c5.112,0,9.271,4.159,9.271,9.271V92.788z"/>
			</g>
		</g>
		<g>
			<g>
				<path class="st4" d="M228.696,73.752h-1.703l0.044,0.032l-7.402,9.817l-3.82-2.878l-3.82,2.878l-7.402-9.817l0.044-0.032H202.5      c-5.949,0-10.771,4.822-10.771,10.771v9.765h47.739v-9.765C239.467,78.574,234.645,73.752,228.696,73.752z"/>
			</g>
		</g>
		<g>
			<g>
				<path class="st3" d="M228.696,72.252h-1.703c-0.581,0-1.084,0.347-1.329,0.861l-6.324,8.388l-2.622-1.976      c-0.535-0.402-1.271-0.402-1.806,0l-2.622,1.976l-6.258-8.3c-0.225-0.569-0.777-0.949-1.395-0.949H202.5      c-6.767,0-12.272,5.505-12.272,12.271v9.766c0,0.828,0.671,1.5,1.5,1.5h47.739c0.829,0,1.5-0.672,1.5-1.5v-9.766      C240.967,77.757,235.462,72.252,228.696,72.252z M237.967,92.789h-44.739v-8.266c0-5.112,4.159-9.271,9.272-9.271h1.321      l6.977,9.253c0.499,0.66,1.439,0.791,2.101,0.295l2.917-2.198l2.917,2.198c0.661,0.496,1.601,0.365,2.101-0.295l6.977-9.253      h0.886c5.112,0,9.271,4.159,9.271,9.271V92.789z"/>
			</g>
		</g>
		<g>
			<g>
				<path class="st9" d="M197.102,42.815c-2.341,0-4.238,1.898-4.238,4.239c0,2.341,1.898,4.238,4.238,4.238      c2.341,0,4.238-1.898,4.238-4.238C201.34,44.713,199.443,42.815,197.102,42.815z"/>
			</g>
		</g>
		<g>
			<g>
				<path class="st3" d="M197.102,41.315c-3.164,0-5.738,2.574-5.738,5.738s2.574,5.738,5.738,5.738      c3.164,0,5.738-2.574,5.738-5.738S200.266,41.315,197.102,41.315z M197.102,49.792c-1.51,0-2.738-1.229-2.738-2.738      s1.229-2.738,2.738-2.738c1.51,0,2.738,1.229,2.738,2.738S198.612,49.792,197.102,49.792z"/>
			</g>
		</g>
		<g>
			<g>
				<path class="st9" d="M234.095,42.815c-2.341,0-4.238,1.898-4.238,4.239c0,2.341,1.898,4.238,4.238,4.238      c2.341,0,4.238-1.898,4.238-4.238C238.333,44.713,236.436,42.815,234.095,42.815z"/>
			</g>
		</g>
		<g>
			<g>
				<path class="st3" d="M234.095,41.315c-3.164,0-5.738,2.574-5.738,5.738s2.574,5.738,5.738,5.738      c3.164,0,5.738-2.574,5.738-5.738S237.259,41.315,234.095,41.315z M234.095,49.792c-1.51,0-2.738-1.229-2.738-2.738      s1.229-2.738,2.738-2.738c1.51,0,2.738,1.229,2.738,2.738S235.605,49.792,234.095,49.792z"/>
			</g>
		</g>
		<g>
			<g>
				<path class="st12" d="M215.599,26.207c-10.377,0-18.789,8.412-18.789,18.789c0,10.377,10.394,26.304,18.789,26.304      c8.795,0,18.789-15.928,18.789-26.304C234.387,34.619,225.975,26.207,215.599,26.207z"/>
			</g>
		</g>
		<g>
			<g>
				<path class="st3" d="M215.599,24.707c-11.188,0-20.289,9.102-20.289,20.289c0,10.979,10.882,27.805,20.289,27.805      c9.602,0,20.289-16.573,20.289-27.805C235.887,33.809,226.786,24.707,215.599,24.707z M215.599,69.801      c-7.109,0-17.289-14.604-17.289-24.805c0-9.533,7.756-17.289,17.289-17.289c9.533,0,17.289,7.756,17.289,17.289      C232.887,54.565,223.447,69.801,215.599,69.801z"/>
			</g>
		</g>
		<g>
			<g>
				<path class="st3" d="M208.965,42.95c-1.013,0-1.834,0.821-1.834,1.834c0,1.013,0.821,1.834,1.834,1.834      c1.013,0,1.834-0.821,1.834-1.834C210.799,43.771,209.978,42.95,208.965,42.95z"/>
			</g>
		</g>
		<g>
			<g>
				<path class="st3" d="M222.232,42.95c-1.013,0-1.834,0.821-1.834,1.834c0,1.013,0.821,1.834,1.834,1.834      c1.013,0,1.834-0.821,1.834-1.834C224.066,43.771,223.245,42.95,222.232,42.95z"/>
			</g>
		</g>
		<g>
			<g>
				<path class="st16" d="M205.3,47.875c-1.745,0-3.159,1.057-3.159,2.362s1.414,2.362,3.159,2.362c1.745,0,3.159-1.057,3.159-2.362      S207.044,47.875,205.3,47.875z"/>
			</g>
		</g>
		<g>
			<g>
				<path class="st16" d="M225.897,47.875c-1.745,0-3.159,1.057-3.159,2.362s1.414,2.362,3.159,2.362      c1.745,0,3.159-1.057,3.159-2.362S227.642,47.875,225.897,47.875z"/>
			</g>
		</g>
		<g>
			<g>
				
					<rect x="207.811" y="71.099" transform="matrix(0.7986 -0.6019 0.6019 0.7986 -4.1548 142.0774)" class="st6" width="4.803" height="12.295"/>
			</g>
		</g>
		<g>
			<g>
				<path class="st3" d="M217.029,79.809l-7.4-9.819c-0.239-0.318-0.595-0.527-0.989-0.583c-0.394-0.056-0.793,0.048-1.111,0.287      l-3.835,2.891c-0.662,0.499-0.794,1.439-0.295,2.101l7.4,9.819c0.294,0.392,0.744,0.598,1.199,0.598      c0.314,0,0.631-0.099,0.902-0.302l3.836-2.891c0.317-0.239,0.527-0.596,0.583-0.989      C217.372,80.525,217.269,80.126,217.029,79.809z M212.29,81.501l-5.595-7.424l1.44-1.085l5.595,7.424L212.29,81.501z"/>
			</g>
		</g>
		<g>
			<g>
				
					<rect x="215.27" y="74.845" transform="matrix(0.6019 -0.7986 0.7986 0.6019 26.4648 207.5779)" class="st6" width="12.295" height="4.803"/>
			</g>
		</g>
		<g>
			<g>
				<path class="st3" d="M228.521,73.573c-0.055-0.394-0.265-0.75-0.583-0.989l-3.836-2.891c-0.662-0.497-1.603-0.366-2.1,0.296      l-7.4,9.819c-0.499,0.661-0.367,1.602,0.295,2.101l3.835,2.891c0.262,0.197,0.579,0.302,0.903,0.302      c0.069,0,0.139-0.005,0.209-0.015c0.394-0.056,0.75-0.265,0.989-0.583l7.4-9.819C228.473,74.367,228.576,73.968,228.521,73.573z       M219.34,81.501l-1.44-1.085l5.595-7.424l1.44,1.085L219.34,81.501z"/>
			</g>
		</g>
		<g>
			<g>
				<path class="st3" d="M200.67,85.073c-0.829,0-1.5,0.672-1.5,1.5v7.716c0,0.828,0.671,1.5,1.5,1.5s1.5-0.672,1.5-1.5v-7.716      C202.17,85.745,201.499,85.073,200.67,85.073z"/>
			</g>
		</g>
		<g>
			<g>
				<path class="st3" d="M230.96,85.073c-0.829,0-1.5,0.672-1.5,1.5v7.716c0,0.828,0.671,1.5,1.5,1.5c0.829,0,1.5-0.672,1.5-1.5      v-7.716C232.46,85.745,231.789,85.073,230.96,85.073z"/>
			</g>
		</g>
		<g>
			<g>
				<path class="st3" d="M221.315,55.601c-0.776-0.293-1.641,0.102-1.931,0.878c-0.34,0.908-1.629,2.258-3.787,2.258      c-1.871,0-3.055-0.732-3.837-2.376c-0.356-0.748-1.25-1.063-2-0.71c-0.747,0.356-1.065,1.251-0.709,1.999      c1.273,2.674,3.537,4.087,6.546,4.087c3.45,0,5.838-2.18,6.597-4.205C222.485,56.755,222.091,55.891,221.315,55.601z"/>
			</g>
		</g>
		<g>
			<g>
				<path class="st6" d="M231.058,23.234c-3.948-4.171-9.535-6.773-15.728-6.773c-2.316,0-4.546,0.364-6.636,1.041      c1.655,3.838,3.611,7.524,6.276,10.732c1.225,1.471,2.582,2.829,4.018,4.089c1.17,1.041,2.395,2.023,3.639,2.966      c4.241,3.22,8.819,6.068,13.631,8.388c0.473-1.776,0.724-3.643,0.724-5.568C236.981,32.347,234.732,27.112,231.058,23.234z"/>
			</g>
		</g>
		<g>
			<g>
				<path class="st3" d="M232.147,22.203c-4.42-4.67-10.393-7.241-16.818-7.241c-2.43,0-4.818,0.374-7.098,1.113      c-0.401,0.13-0.73,0.423-0.904,0.808c-0.174,0.385-0.178,0.825-0.011,1.213c2.001,4.643,4.067,8.168,6.5,11.098      c1.203,1.446,2.61,2.879,4.174,4.25c1.087,0.968,2.307,1.963,3.729,3.04c4.432,3.365,9.104,6.239,13.887,8.545      c0.206,0.099,0.429,0.148,0.651,0.148c0.213,0,0.427-0.046,0.626-0.137c0.406-0.187,0.708-0.545,0.823-0.977      c0.514-1.928,0.774-3.932,0.774-5.954C238.481,32.162,236.232,26.514,232.147,22.203z M235.202,41.475      c-4.008-2.062-7.926-4.539-11.669-7.381c-1.359-1.03-2.519-1.977-3.556-2.898c-1.454-1.275-2.751-2.595-3.854-3.919      c-1.967-2.368-3.687-5.191-5.351-8.796c1.483-0.345,3.01-0.519,4.557-0.519c5.592,0,10.791,2.238,14.64,6.305      c3.555,3.751,5.512,8.667,5.512,13.843C235.481,39.243,235.388,40.369,235.202,41.475z"/>
			</g>
		</g>
		<g>
			<g>
				<path class="st6" d="M215.33,16.462c-2.316,0-4.546,0.364-6.636,1.041c-8.709,2.797-15.012,10.967-15.012,20.607      c0,2.038,0.282,4.01,0.81,5.881c8.541-3.134,16.886-6.898,24.496-11.667c4.292-2.688,8.346-5.693,12.07-9.089      C227.11,19.063,221.523,16.462,215.33,16.462z"/>
			</g>
		</g>
		<g>
			<g>
				<path class="st3" d="M232.147,22.203c-4.42-4.67-10.393-7.241-16.818-7.241c-2.43,0-4.818,0.374-7.095,1.112      c-9.602,3.084-16.053,11.939-16.053,22.035c0,2.137,0.292,4.252,0.866,6.288c0.114,0.402,0.39,0.739,0.762,0.929      c0.213,0.109,0.447,0.164,0.682,0.164c0.174,0,0.35-0.03,0.517-0.092c9.644-3.538,17.749-7.399,24.776-11.804      c4.529-2.837,8.662-5.95,12.284-9.252c0.298-0.271,0.474-0.65,0.489-1.053C232.572,22.887,232.424,22.496,232.147,22.203z       M218.191,31.053c-6.463,4.05-13.882,7.637-22.635,10.94c-0.249-1.272-0.375-2.573-0.375-3.884      c0-8.787,5.615-16.495,13.975-19.181c1.981-0.642,4.058-0.967,6.173-0.967c5.073,0,9.823,1.843,13.534,5.22      C225.665,25.973,222.081,28.615,218.191,31.053z"/>
			</g>
		</g>
		<g>
			<g>
				<rect x="19.972" y="181.927" class="st6" width="40.325" height="46.156"/>
			</g>
		</g>
		<g>
			<g>
				<path class="st3" d="M60.298,180.427H19.972c-0.829,0-1.5,0.672-1.5,1.5v46.155c0,0.828,0.671,1.5,1.5,1.5h40.326      c0.829,0,1.5-0.672,1.5-1.5v-46.155C61.798,181.099,61.126,180.427,60.298,180.427z M58.798,226.582H21.472v-43.155h37.326      V226.582z"/>
			</g>
		</g>
		<g>
			<g>
				<path class="st12" d="M53.5,219.005h-7.117v-4.625c-1.968,1.365-4.005,2.17-5.982,2.17c-1.896,0-3.896-0.813-5.857-2.194h-0.121      v4.649h-7.121c-5.949,0-10.771,4.822-10.771,10.771v9.761h47.739v-9.761C64.271,223.827,59.449,219.005,53.5,219.005z"/>
			</g>
		</g>
		<g>
			<g>
				<path class="st3" d="M53.5,217.505h-5.617v-3.125c0-0.558-0.31-1.07-0.804-1.329c-0.494-0.258-1.092-0.222-1.55,0.097      c-1.822,1.262-3.546,1.902-5.127,1.902c-1.483,0-3.209-0.664-4.993-1.921c-0.253-0.178-0.555-0.273-0.864-0.273h-0.121      c-0.829,0-1.5,0.672-1.5,1.5v3.149h-5.621c-6.766,0-12.271,5.505-12.271,12.271v9.761c0,0.828,0.671,1.5,1.5,1.5h47.739      c0.829,0,1.5-0.672,1.5-1.5v-9.761C65.771,223.01,60.267,217.505,53.5,217.505z M62.771,238.037H18.033v-8.261      c0-5.112,4.159-9.271,9.271-9.271h7.121c0.829,0,1.5-0.672,1.5-1.5v-2.083c3.091,1.507,5.928,1.472,8.958,0.058v2.025      c0,0.828,0.671,1.5,1.5,1.5H53.5c5.112,0,9.271,4.159,9.271,9.271V238.037z"/>
			</g>
		</g>
		<g>
			<g>
				<path class="st4" d="M53.5,219.002h-1.703l0.044,0.032l-7.402,9.818l-3.82-2.878l-3.82,2.878l-7.402-9.818l0.044-0.032h-2.137      c-5.949,0-10.771,4.822-10.771,10.771v9.765h47.739v-9.765C64.272,223.824,59.449,219.002,53.5,219.002z"/>
			</g>
		</g>
		<g>
			<g>
				<path class="st3" d="M53.5,217.502h-1.703c-0.581,0-1.084,0.347-1.329,0.861l-6.324,8.388l-2.622-1.976      c-0.535-0.402-1.27-0.402-1.806,0l-2.622,1.976l-6.258-8.3c-0.225-0.569-0.777-0.949-1.396-0.949h-2.137      c-6.767,0-12.271,5.505-12.271,12.271v9.765c0,0.828,0.671,1.5,1.5,1.5h47.739c0.829,0,1.5-0.672,1.5-1.5v-9.765      C65.771,223.007,60.267,217.502,53.5,217.502z M62.771,238.038H18.033v-8.265c0-5.112,4.159-9.271,9.271-9.271h1.321      l6.977,9.253c0.499,0.661,1.438,0.791,2.1,0.295l2.917-2.198l2.917,2.198c0.662,0.496,1.602,0.366,2.101-0.295l6.977-9.253H53.5      c5.112,0,9.271,4.159,9.271,9.271V238.038z"/>
			</g>
		</g>
		<g>
			<g>
				<path class="st9" d="M21.906,188.065c-2.341,0-4.238,1.898-4.238,4.239s1.898,4.238,4.238,4.238      c2.341,0,4.238-1.897,4.238-4.238S24.247,188.065,21.906,188.065z"/>
			</g>
		</g>
		<g>
			<g>
				<path class="st3" d="M21.906,186.564c-3.164,0-5.738,2.574-5.738,5.738s2.574,5.738,5.738,5.738      c3.164,0,5.738-2.574,5.738-5.738S25.07,186.564,21.906,186.564z M21.906,195.041c-1.51,0-2.738-1.229-2.738-2.738      s1.228-2.738,2.738-2.738c1.51,0,2.738,1.229,2.738,2.738S23.416,195.041,21.906,195.041z"/>
			</g>
		</g>
		<g>
			<g>
				<path class="st9" d="M58.899,188.065c-2.341,0-4.238,1.898-4.238,4.239s1.898,4.238,4.238,4.238      c2.341,0,4.238-1.897,4.238-4.238S61.24,188.065,58.899,188.065z"/>
			</g>
		</g>
		<g>
			<g>
				<path class="st3" d="M58.899,186.564c-3.164,0-5.738,2.574-5.738,5.738s2.574,5.738,5.738,5.738      c3.164,0,5.738-2.574,5.738-5.738S62.063,186.564,58.899,186.564z M58.899,195.041c-1.51,0-2.738-1.229-2.738-2.738      s1.229-2.738,2.738-2.738c1.51,0,2.738,1.229,2.738,2.738S60.409,195.041,58.899,195.041z"/>
			</g>
		</g>
		<g>
			<g>
				<path class="st12" d="M40.403,171.457c-10.377,0-18.789,8.412-18.789,18.789c0,10.377,10.394,26.304,18.789,26.304      c8.795,0,18.789-15.928,18.789-26.304C59.191,179.869,50.779,171.457,40.403,171.457z"/>
			</g>
		</g>
		<g>
			<g>
				<path class="st3" d="M40.403,169.957c-11.188,0-20.289,9.102-20.289,20.289c0,10.979,10.882,27.804,20.289,27.804      c9.602,0,20.289-16.572,20.289-27.804C60.691,179.059,51.59,169.957,40.403,169.957z M40.403,215.05      c-7.109,0-17.289-14.604-17.289-24.804c0-9.533,7.756-17.289,17.289-17.289c9.533,0,17.289,7.756,17.289,17.289      C57.691,199.815,48.251,215.05,40.403,215.05z"/>
			</g>
		</g>
		<g>
			<g>
				<path class="st3" d="M33.769,188.2c-1.013,0-1.834,0.821-1.834,1.834s0.821,1.834,1.834,1.834c1.013,0,1.834-0.821,1.834-1.834      S34.782,188.2,33.769,188.2z"/>
			</g>
		</g>
		<g>
			<g>
				<path class="st3" d="M47.036,188.2c-1.013,0-1.834,0.821-1.834,1.834s0.821,1.834,1.834,1.834s1.834-0.821,1.834-1.834      S48.049,188.2,47.036,188.2z"/>
			</g>
		</g>
		<g>
			<g>
				<ellipse class="st16" cx="30.104" cy="195.486" rx="3.159" ry="2.362"/>
			</g>
		</g>
		<g>
			<g>
				<path class="st16" d="M50.701,193.124c-1.745,0-3.159,1.057-3.159,2.362c0,1.304,1.414,2.362,3.159,2.362      c1.745,0,3.159-1.057,3.159-2.362C53.86,194.181,52.446,193.124,50.701,193.124z"/>
			</g>
		</g>
		<g>
			<g>
				
					<rect x="32.616" y="216.349" transform="matrix(0.7986 -0.6018 0.6018 0.7986 -126.8539 65.8803)" class="st6" width="4.803" height="12.295"/>
			</g>
		</g>
		<g>
			<g>
				<path class="st3" d="M41.833,225.059l-7.4-9.819c-0.239-0.318-0.595-0.527-0.989-0.583c-0.392-0.057-0.793,0.048-1.111,0.287      l-3.835,2.891c-0.662,0.499-0.794,1.439-0.295,2.101l7.4,9.819c0.294,0.392,0.744,0.598,1.199,0.598      c0.314,0,0.631-0.099,0.902-0.302l3.836-2.891c0.317-0.239,0.527-0.596,0.583-0.989      C42.176,225.775,42.073,225.376,41.833,225.059z M37.095,226.751l-5.595-7.424l1.44-1.085l5.595,7.424L37.095,226.751z"/>
			</g>
		</g>
		<g>
			<g>
				
					<rect x="40.074" y="220.095" transform="matrix(0.6019 -0.7986 0.7986 0.6019 -159.2824 125.4959)" class="st6" width="12.295" height="4.803"/>
			</g>
		</g>
		<g>
			<g>
				<path class="st3" d="M53.325,218.823c-0.055-0.394-0.265-0.75-0.583-0.989l-3.836-2.891c-0.661-0.497-1.602-0.367-2.1,0.296      l-7.4,9.819c-0.24,0.317-0.343,0.717-0.288,1.111c0.055,0.394,0.265,0.75,0.582,0.989l3.836,2.891      c0.27,0.203,0.587,0.302,0.902,0.302c0.455,0,0.904-0.206,1.199-0.598l7.4-9.819C53.277,219.617,53.38,219.218,53.325,218.823z       M44.144,226.751l-1.44-1.085l5.595-7.424l1.44,1.085L44.144,226.751z"/>
			</g>
		</g>
		<g>
			<g>
				<path class="st3" d="M46.12,200.851c-0.775-0.293-1.64,0.102-1.931,0.878c-0.34,0.908-1.629,2.258-3.787,2.258      c-1.872,0-3.055-0.732-3.837-2.376c-0.356-0.748-1.25-1.063-2-0.71c-0.747,0.356-1.065,1.251-0.709,1.999      c1.273,2.674,3.537,4.087,6.546,4.087c3.45,0,5.837-2.18,6.596-4.205C47.289,202.005,46.896,201.141,46.12,200.851z"/>
			</g>
		</g>
		<g>
			<g>
				<path class="st6" d="M55.862,168.484c-3.948-4.171-9.535-6.772-15.728-6.772c-2.316,0-4.546,0.364-6.636,1.041      c1.655,3.838,3.611,7.524,6.276,10.732c1.225,1.471,2.582,2.829,4.018,4.089c1.17,1.041,2.395,2.023,3.639,2.966      c4.241,3.22,8.819,6.068,13.631,8.388c0.473-1.776,0.724-3.643,0.724-5.568C61.786,177.596,59.536,172.361,55.862,168.484z"/>
			</g>
		</g>
		<g>
			<g>
				<path class="st3" d="M56.952,167.453c-4.421-4.67-10.394-7.242-16.818-7.242c-2.428,0-4.816,0.375-7.098,1.114      c-0.401,0.13-0.73,0.423-0.904,0.808c-0.174,0.385-0.178,0.825-0.011,1.213c2.003,4.644,4.068,8.17,6.5,11.099      c1.206,1.448,2.613,2.881,4.174,4.25c1.097,0.976,2.317,1.97,3.728,3.038c4.427,3.362,9.1,6.237,13.887,8.546      c0.206,0.099,0.428,0.148,0.651,0.148c0.213,0,0.427-0.046,0.626-0.137c0.407-0.187,0.708-0.545,0.823-0.978      c0.514-1.929,0.774-3.932,0.774-5.953C63.286,177.412,61.036,171.764,56.952,167.453z M60.006,186.725      c-4.012-2.064-7.929-4.542-11.669-7.382c-1.349-1.022-2.51-1.968-3.555-2.897c-1.452-1.273-2.749-2.592-3.854-3.919      c-1.966-2.367-3.686-5.19-5.351-8.796c1.484-0.346,3.011-0.52,4.557-0.52c5.592,0,10.79,2.239,14.64,6.306      c3.555,3.751,5.512,8.667,5.512,13.843C60.286,184.493,60.192,185.619,60.006,186.725z"/>
			</g>
		</g>
		<g>
			<g>
				<path class="st6" d="M40.134,161.711c-2.316,0-4.546,0.364-6.636,1.041c-8.709,2.798-15.012,10.967-15.012,20.607      c0,2.039,0.282,4.01,0.81,5.881c8.541-3.134,16.886-6.898,24.496-11.667c4.292-2.688,8.346-5.693,12.07-9.089      C51.914,164.313,46.327,161.711,40.134,161.711z"/>
			</g>
		</g>
		<g>
			<g>
				<path class="st3" d="M56.952,167.453c-4.421-4.67-10.394-7.242-16.818-7.242c-2.428,0-4.816,0.375-7.095,1.113      c-9.602,3.084-16.053,11.939-16.053,22.035c0,2.137,0.292,4.252,0.866,6.288c0.113,0.402,0.389,0.739,0.761,0.929      c0.213,0.109,0.447,0.164,0.682,0.164c0.174,0,0.35-0.03,0.517-0.092c9.641-3.537,17.746-7.398,24.776-11.804      c4.529-2.837,8.662-5.95,12.284-9.252c0.298-0.271,0.474-0.65,0.489-1.053C57.376,168.137,57.229,167.746,56.952,167.453z       M42.996,176.302c-6.466,4.053-13.885,7.639-22.635,10.941c-0.249-1.272-0.375-2.573-0.375-3.884      c0-8.787,5.615-16.495,13.975-19.181c1.983-0.642,4.06-0.968,6.173-0.968c5.073,0,9.823,1.843,13.534,5.221      C50.469,171.223,46.886,173.865,42.996,176.302z"/>
			</g>
		</g>
		<g>
			<g>
				<rect x="195.168" y="181.927" class="st6" width="40.325" height="46.156"/>
			</g>
		</g>
		<g>
			<g>
				<path class="st3" d="M235.494,180.427h-40.325c-0.829,0-1.5,0.672-1.5,1.5v46.155c0,0.828,0.671,1.5,1.5,1.5h40.325      c0.829,0,1.5-0.672,1.5-1.5v-46.155C236.994,181.099,236.322,180.427,235.494,180.427z M233.994,226.582h-37.325v-43.155h37.325      V226.582z"/>
			</g>
		</g>
		<g>
			<g>
				<path class="st12" d="M228.696,219.005h-7.117v-4.625c-1.968,1.365-4.005,2.17-5.982,2.17c-1.896,0-3.896-0.813-5.857-2.194      h-0.121v4.649H202.5c-5.949,0-10.771,4.822-10.771,10.771v9.761h47.739v-9.761C239.467,223.827,234.645,219.005,228.696,219.005      z"/>
			</g>
		</g>
		<g>
			<g>
				<path class="st3" d="M228.696,217.505h-5.617v-3.125c0-0.558-0.31-1.07-0.804-1.329c-0.494-0.258-1.09-0.222-1.55,0.097      c-1.822,1.262-3.546,1.902-5.127,1.902c-1.483,0-3.209-0.664-4.993-1.921c-0.253-0.178-0.555-0.273-0.864-0.273h-0.121      c-0.829,0-1.5,0.672-1.5,1.5v3.149H202.5c-6.767,0-12.272,5.505-12.272,12.271v9.761c0,0.828,0.671,1.5,1.5,1.5h47.739      c0.829,0,1.5-0.672,1.5-1.5v-9.761C240.967,223.01,235.462,217.505,228.696,217.505z M237.967,238.037h-44.739v-8.261      c0-5.112,4.159-9.271,9.272-9.271h7.121c0.829,0,1.5-0.672,1.5-1.5v-2.083c3.091,1.507,5.927,1.472,8.958,0.058v2.025      c0,0.828,0.671,1.5,1.5,1.5h7.117c5.112,0,9.271,4.159,9.271,9.271V238.037z"/>
			</g>
		</g>
		<g>
			<g>
				<path class="st4" d="M228.696,219.002h-1.703l0.044,0.032l-7.402,9.818l-3.82-2.878l-3.82,2.878l-7.402-9.818l0.044-0.032H202.5      c-5.949,0-10.771,4.822-10.771,10.771v9.765h47.739v-9.765C239.467,223.824,234.645,219.002,228.696,219.002z"/>
			</g>
		</g>
		<g>
			<g>
				<path class="st3" d="M228.696,217.502h-1.703c-0.581,0-1.084,0.347-1.329,0.861l-6.324,8.388l-2.622-1.976      c-0.535-0.402-1.271-0.402-1.806,0l-2.622,1.976l-6.258-8.3c-0.225-0.569-0.777-0.949-1.395-0.949H202.5      c-6.767,0-12.272,5.505-12.272,12.271v9.765c0,0.828,0.671,1.5,1.5,1.5h47.739c0.829,0,1.5-0.672,1.5-1.5v-9.765      C240.967,223.007,235.462,217.502,228.696,217.502z M237.967,238.038h-44.739v-8.265c0-5.112,4.159-9.271,9.272-9.271h1.321      l6.977,9.253c0.499,0.661,1.439,0.791,2.101,0.295l2.917-2.198l2.917,2.198c0.661,0.496,1.601,0.366,2.101-0.295l6.977-9.253      h0.886c5.112,0,9.271,4.159,9.271,9.271V238.038z"/>
			</g>
		</g>
		<g>
			<g>
				<path class="st9" d="M197.102,188.065c-2.341,0-4.238,1.898-4.238,4.239s1.898,4.238,4.238,4.238      c2.341,0,4.238-1.897,4.238-4.238S199.443,188.065,197.102,188.065z"/>
			</g>
		</g>
		<g>
			<g>
				<path class="st3" d="M197.102,186.564c-3.164,0-5.738,2.574-5.738,5.738s2.574,5.738,5.738,5.738      c3.164,0,5.738-2.574,5.738-5.738S200.266,186.564,197.102,186.564z M197.102,195.041c-1.51,0-2.738-1.229-2.738-2.738      s1.229-2.738,2.738-2.738c1.51,0,2.738,1.229,2.738,2.738S198.612,195.041,197.102,195.041z"/>
			</g>
		</g>
		<g>
			<g>
				<path class="st9" d="M234.095,188.065c-2.341,0-4.238,1.898-4.238,4.239s1.898,4.238,4.238,4.238      c2.341,0,4.238-1.897,4.238-4.238S236.436,188.065,234.095,188.065z"/>
			</g>
		</g>
		<g>
			<g>
				<path class="st3" d="M234.095,186.564c-3.164,0-5.738,2.574-5.738,5.738s2.574,5.738,5.738,5.738      c3.164,0,5.738-2.574,5.738-5.738S237.259,186.564,234.095,186.564z M234.095,195.041c-1.51,0-2.738-1.229-2.738-2.738      s1.229-2.738,2.738-2.738c1.51,0,2.738,1.229,2.738,2.738S235.605,195.041,234.095,195.041z"/>
			</g>
		</g>
		<g>
			<g>
				<path class="st12" d="M215.599,171.457c-10.377,0-18.789,8.412-18.789,18.789c0,10.377,10.394,26.304,18.789,26.304      c8.795,0,18.789-15.928,18.789-26.304C234.387,179.869,225.975,171.457,215.599,171.457z"/>
			</g>
		</g>
		<g>
			<g>
				<path class="st3" d="M215.599,169.957c-11.188,0-20.289,9.102-20.289,20.289c0,10.979,10.882,27.804,20.289,27.804      c9.602,0,20.289-16.572,20.289-27.804C235.887,179.059,226.786,169.957,215.599,169.957z M215.599,215.05      c-7.109,0-17.289-14.604-17.289-24.804c0-9.533,7.756-17.289,17.289-17.289c9.533,0,17.289,7.756,17.289,17.289      C232.887,199.815,223.447,215.05,215.599,215.05z"/>
			</g>
		</g>
		<g>
			<g>
				<path class="st3" d="M208.965,188.2c-1.013,0-1.834,0.821-1.834,1.834s0.821,1.834,1.834,1.834c1.013,0,1.834-0.821,1.834-1.834      S209.978,188.2,208.965,188.2z"/>
			</g>
		</g>
		<g>
			<g>
				<path class="st3" d="M222.232,188.2c-1.013,0-1.834,0.821-1.834,1.834s0.821,1.834,1.834,1.834c1.013,0,1.834-0.821,1.834-1.834      S223.245,188.2,222.232,188.2z"/>
			</g>
		</g>
		<g>
			<g>
				<path class="st16" d="M205.3,193.124c-1.745,0-3.159,1.057-3.159,2.362c0,1.304,1.414,2.362,3.159,2.362      c1.745,0,3.159-1.057,3.159-2.362C208.459,194.181,207.044,193.124,205.3,193.124z"/>
			</g>
		</g>
		<g>
			<g>
				<path class="st16" d="M225.897,193.124c-1.745,0-3.159,1.057-3.159,2.362c0,1.304,1.414,2.362,3.159,2.362      c1.745,0,3.159-1.057,3.159-2.362C229.056,194.181,227.642,193.124,225.897,193.124z"/>
			</g>
		</g>
		<g>
			<g>
				
					<rect x="207.811" y="216.349" transform="matrix(0.7986 -0.6018 0.6018 0.7986 -91.5734 171.3188)" class="st6" width="4.803" height="12.295"/>
			</g>
		</g>
		<g>
			<g>
				<path class="st3" d="M217.029,225.059l-7.4-9.819c-0.239-0.318-0.595-0.527-0.989-0.583c-0.394-0.057-0.793,0.048-1.111,0.287      l-3.835,2.891c-0.662,0.499-0.794,1.439-0.295,2.101l7.4,9.819c0.294,0.392,0.744,0.598,1.199,0.598      c0.314,0,0.631-0.099,0.902-0.302l3.836-2.891c0.317-0.239,0.527-0.596,0.583-0.989      C217.372,225.775,217.269,225.376,217.029,225.059z M212.29,226.751l-5.595-7.424l1.44-1.085l5.595,7.424L212.29,226.751z"/>
			</g>
		</g>
		<g>
			<g>
				
					<rect x="215.27" y="220.095" transform="matrix(0.6019 -0.7986 0.7986 0.6019 -89.5311 265.4066)" class="st6" width="12.295" height="4.803"/>
			</g>
		</g>
		<g>
			<g>
				<path class="st3" d="M228.521,218.823c-0.055-0.394-0.265-0.75-0.583-0.989l-3.836-2.891c-0.662-0.497-1.603-0.367-2.1,0.296      l-7.4,9.819c-0.499,0.661-0.367,1.602,0.295,2.101l3.835,2.891c0.262,0.197,0.579,0.302,0.903,0.302      c0.069,0,0.139-0.005,0.209-0.015c0.394-0.056,0.75-0.265,0.989-0.583l7.4-9.819      C228.473,219.617,228.576,219.218,228.521,218.823z M219.34,226.751l-1.44-1.085l5.595-7.424l1.44,1.085L219.34,226.751z"/>
			</g>
		</g>
		<g>
			<g>
				<path class="st3" d="M221.315,200.851c-0.776-0.293-1.641,0.102-1.931,0.878c-0.34,0.908-1.629,2.258-3.787,2.258      c-1.871,0-3.055-0.732-3.837-2.376c-0.356-0.748-1.25-1.063-2-0.71c-0.747,0.356-1.065,1.251-0.709,1.999      c1.273,2.674,3.537,4.087,6.546,4.087c3.45,0,5.838-2.18,6.597-4.205C222.485,202.005,222.091,201.141,221.315,200.851z"/>
			</g>
		</g>
		<g>
			<g>
				<path class="st6" d="M231.058,168.484c-3.948-4.171-9.535-6.772-15.728-6.772c-2.316,0-4.546,0.364-6.636,1.041      c1.655,3.838,3.611,7.524,6.276,10.732c1.225,1.471,2.582,2.829,4.018,4.089c1.17,1.041,2.395,2.023,3.639,2.966      c4.241,3.22,8.819,6.068,13.631,8.388c0.473-1.776,0.724-3.643,0.724-5.568C236.981,177.596,234.732,172.361,231.058,168.484z"/>
			</g>
		</g>
		<g>
			<g>
				<path class="st3" d="M232.147,167.453c-4.421-4.67-10.394-7.242-16.818-7.242c-2.428,0-4.816,0.375-7.098,1.114      c-0.401,0.13-0.73,0.423-0.904,0.808c-0.174,0.385-0.178,0.825-0.011,1.213c2.003,4.644,4.068,8.17,6.5,11.099      c1.206,1.448,2.613,2.881,4.174,4.25c1.097,0.976,2.317,1.97,3.728,3.038c4.427,3.362,9.1,6.237,13.887,8.546      c0.206,0.099,0.428,0.148,0.651,0.148c0.213,0,0.427-0.046,0.626-0.137c0.407-0.187,0.708-0.545,0.824-0.978      c0.514-1.929,0.774-3.932,0.774-5.953C238.481,177.412,236.232,171.764,232.147,167.453z M235.202,186.725      c-4.012-2.064-7.929-4.542-11.669-7.382c-1.349-1.022-2.51-1.968-3.555-2.897c-1.452-1.273-2.749-2.592-3.854-3.919      c-1.966-2.367-3.686-5.19-5.351-8.796c1.484-0.346,3.011-0.52,4.557-0.52c5.592,0,10.79,2.239,14.64,6.306      c3.555,3.751,5.512,8.667,5.512,13.843C235.481,184.493,235.388,185.619,235.202,186.725z"/>
			</g>
		</g>
		<g>
			<g>
				<path class="st6" d="M215.33,161.711c-2.316,0-4.546,0.364-6.636,1.041c-8.709,2.798-15.012,10.967-15.012,20.607      c0,2.039,0.282,4.01,0.81,5.881c8.541-3.134,16.886-6.898,24.496-11.667c4.292-2.688,8.346-5.693,12.07-9.089      C227.11,164.313,221.523,161.711,215.33,161.711z"/>
			</g>
		</g>
		<g>
			<g>
				<path class="st3" d="M232.147,167.453c-4.421-4.67-10.394-7.242-16.818-7.242c-2.428,0-4.816,0.375-7.095,1.113      c-9.602,3.084-16.053,11.939-16.053,22.035c0,2.137,0.292,4.252,0.866,6.288c0.114,0.402,0.39,0.739,0.762,0.929      c0.213,0.109,0.447,0.164,0.682,0.164c0.174,0,0.35-0.03,0.517-0.092c9.641-3.537,17.746-7.398,24.776-11.804      c4.529-2.837,8.662-5.95,12.284-9.252c0.298-0.271,0.474-0.65,0.489-1.053C232.572,168.137,232.424,167.746,232.147,167.453z       M218.191,176.302c-6.466,4.053-13.885,7.639-22.635,10.941c-0.249-1.272-0.375-2.573-0.375-3.884      c0-8.787,5.615-16.495,13.975-19.181c1.983-0.642,4.06-0.968,6.173-0.968c5.073,0,9.823,1.843,13.534,5.221      C225.665,171.223,222.081,173.865,218.191,176.302z"/>
			</g>
		</g>
		<g>
			<g>
				<path class="st15" d="M128,72.764l-4.08,3.46l9.66,8.2l1.98,1.68l0.01,0.01l31.5,26.71v0.12c1.49,1.31,2.42,3.23,2.42,5.37      v51.65h5.74v-57.14L128,72.764z"/>
			</g>
		</g>
	</g>
</g>
</svg>
