<svg xmlns="http://www.w3.org/2000/svg" viewBox="0 0 600 600"><defs><style>.a{fill:#f0f0f0;}.b{fill:#888;}</style></defs><g transform="translate(-695 -336)"><rect class="a" width="600" height="600" rx="6" transform="translate(695 336)"/><g transform="translate(970 579)"><g transform="translate(0 36)"><path class="b" d="M48.047,69.2a1.953,1.953,0,0,0-1.953,1.953,3.911,3.911,0,0,1-3.906,3.906H27.279l-4.491-5.826L36.963,51.208l9.577,11.425q.029.035.059.068l0,0,.007.008a1.947,1.947,0,0,0,1.373.632H48a1.962,1.962,0,0,0,.418-.034h.005l.018,0,.008,0,.016,0,.009,0,.014,0,.01,0,.013,0,.011,0,.012,0,.011,0,.012,0,.011,0,.011,0,.012,0,.012,0,.009,0,.014,0,.008,0,.015,0,.009,0,.014,0,.007,0,.016-.006.006,0,.017-.006.005,0,.018-.007h0l.02-.008h0l.021-.009a1.941,1.941,0,0,0,.254-.126l0,0,.017-.01a1.958,1.958,0,0,0,.3-.22l0,0,0,0A1.948,1.948,0,0,0,50,61.453v-.01s0,0,0-.007,0-.013,0-.02h0c0-.01,0-.021,0-.031V43.813A7.821,7.821,0,0,0,42.187,36H7.813A7.821,7.821,0,0,0,0,43.813V71.156a7.821,7.821,0,0,0,7.813,7.813H42.188A7.821,7.821,0,0,0,50,71.156,1.953,1.953,0,0,0,48.047,69.2ZM7.813,75.063a3.911,3.911,0,0,1-3.906-3.906V43.813a3.911,3.911,0,0,1,3.906-3.906H42.188a3.911,3.911,0,0,1,3.906,3.906V56.02l-7.683-9.166a1.953,1.953,0,0,0-3.032.047L20.328,66.045l-5.109-6.628a1.953,1.953,0,0,0-1.547-.761h0a1.953,1.953,0,0,0-1.547.762l-4.3,5.588a1.953,1.953,0,0,0,3.1,2.382l2.752-3.577,8.673,11.252Z" transform="translate(0 -36)"/></g><g transform="translate(7.879 43.105)"><path class="b" d="M85.7,108a5.7,5.7,0,1,0,5.7,5.7A5.7,5.7,0,0,0,85.7,108Zm0,7.594a1.9,1.9,0,1,1,1.9-1.9A1.9,1.9,0,0,1,85.7,115.594Z" transform="translate(-80 -108)"/></g></g></g></svg>