<svg xmlns="http://www.w3.org/2000/svg" viewBox="0 0 200 200"><defs><style>.a{fill:#f0f0f0;}.b{fill:#888;}</style></defs><g transform="translate(-695 -336)"><rect class="a" width="200" height="200" rx="6" transform="translate(695 336)"/><g transform="translate(760 370)"><g transform="translate(0 36)"><path class="b" d="M67.266,82.484a2.734,2.734,0,0,0-2.734,2.734,5.475,5.475,0,0,1-5.469,5.469H38.19L31.9,82.531,51.748,57.291,65.155,73.286q.04.048.082.095l0,0,.01.011a2.726,2.726,0,0,0,1.923.885H67.2a2.747,2.747,0,0,0,.585-.048h.007l.026-.005.011,0,.022,0,.012,0,.02,0,.014,0,.018,0,.015,0,.017,0,.015,0,.017,0,.016,0,.016,0,.017,0,.016,0,.013,0,.02-.006.011,0,.02-.006.012,0,.02-.007.009,0,.023-.008.009,0,.023-.008.007,0,.025-.009,0,0,.028-.011h0l.03-.012a2.714,2.714,0,0,0,.356-.177l0,0,.023-.014a2.74,2.74,0,0,0,.413-.308l.007-.006.006-.006A2.727,2.727,0,0,0,70,71.635V71.62s0-.006,0-.009,0-.019,0-.028h0c0-.014,0-.029,0-.043v-24.6A10.95,10.95,0,0,0,59.062,36H10.938A10.95,10.95,0,0,0,0,46.937V85.219A10.95,10.95,0,0,0,10.938,96.156H59.063A10.95,10.95,0,0,0,70,85.219,2.734,2.734,0,0,0,67.266,82.484Zm-56.328,8.2a5.475,5.475,0,0,1-5.469-5.469V46.937a5.475,5.475,0,0,1,5.469-5.469H59.063a5.475,5.475,0,0,1,5.469,5.469V64.028L53.775,51.2a2.734,2.734,0,0,0-4.245.066l-21.071,26.8-7.153-9.28a2.734,2.734,0,0,0-2.166-1.065h0a2.734,2.734,0,0,0-2.166,1.067l-6.018,7.823a2.734,2.734,0,0,0,4.335,3.334l3.853-5.008L31.286,90.688Z" transform="translate(0 -36)"/></g><g transform="translate(8.519 45.795)"><path class="b" d="M88.311,108a8.311,8.311,0,1,0,8.311,8.311A8.32,8.32,0,0,0,88.311,108Zm0,11.081a2.77,2.77,0,1,1,2.77-2.77A2.773,2.773,0,0,1,88.311,119.081Z" transform="translate(-80 -108)"/></g></g></g></svg>